<svg width="512" height="512" xmlns="http://www.w3.org/2000/svg">

 <g>
  <title>background</title>
  <rect fill="none" id="canvas_background" height="402" width="582" y="-1" x="-1"/>
 </g>
 <g>
  <title>Layer 1</title>
  <circle id="svg_3" r="256" fill="#003f7f" cy="256" cx="256"/>
  <path id="svg_4" fill="#007fff" d="m256,469.33386c-117.63094,0 -213.33333,-95.70239 -213.33333,-213.33334c0,-117.63146 95.70239,-213.33331 213.33333,-213.33331c117.63626,0 213.33334,95.70186 213.33334,213.33331c0,117.63095 -95.69708,213.33334 -213.33334,213.33334z"/>
  <path id="svg_6" opacity="0.3" d="m268.99948,172.2128l0,204.59039c37.64639,-17.42184 77.56424,-24.26025 115.00052,-19.58612c0,-68.19681 0,-136.39306 0,-204.58934c-37.43509,-4.67413 -77.35306,2.16426 -115.00052,19.58507z"/>
  <path id="svg_7" opacity="0.3" d="m258.99948,172.21227c-37.64748,-17.42028 -77.56375,-24.25867 -114.99895,-19.58454c-0.00053,68.19628 -0.00053,136.39253 0,204.58934c37.43573,-4.67413 77.35254,2.16428 114.99895,19.5856l0,-204.5904z"/>
  <path id="svg_9" fill="#FFFFFF" d="m260.99948,164.2128l0,204.59039c37.64639,-17.42184 77.56424,-24.26025 115.00052,-19.58612c0,-68.19681 0,-136.39306 0,-204.58934c-37.43509,-4.67413 -77.35306,2.16426 -115.00052,19.58507z"/>
  <path id="svg_10" fill="#FFFFFF" d="m250.99947,164.21227c-37.64747,-17.42028 -77.56374,-24.25867 -114.99894,-19.58454c-0.00053,68.19628 -0.00053,136.39253 0,204.58934c37.43573,-4.67413 77.35254,2.16428 114.99894,19.5856l0,-204.5904z"/>
 </g>
</svg>